<?xml version="1.0" standalone="no"?>
<svg viewBox="0 0 200 200" xmlns="http://www.w3.org/2000/svg">
  <path fill="#F2F4F8" d="M34.4,-68.7C40.9,-55.9,39.8,-39.1,42.5,-27C45.2,-14.9,51.7,-7.5,52.4,0.4C53.1,8.2,47.9,16.4,42.5,24C37.2,31.5,31.7,38.4,24.6,48.3C17.4,58.1,8.7,70.8,-2.6,75.4C-14,79.9,-27.9,76.3,-34.7,66.2C-41.4,56.2,-40.8,39.7,-48.7,27.6C-56.5,15.5,-72.8,7.7,-78.7,-3.4C-84.5,-14.5,-80,-29,-69.9,-37.3C-59.8,-45.5,-44.2,-47.5,-31.6,-56.8C-19.1,-66,-9.5,-82.5,2.2,-86.4C14,-90.2,28,-81.4,34.4,-68.7Z" transform="translate(100 100)" />
</svg>
