<svg xmlns="http://www.w3.org/2000/svg" xmlns:xlink="http://www.w3.org/1999/xlink" viewBox="0 0 243.2 162.5"><defs><style>.cls-1{isolation:isolate;}.cls-2{opacity:0.38;mix-blend-mode:multiply;fill:url(#_ÂÁ_Ï_ÌÌ_È_ËÂÌÚ_327);}.cls-3{fill:#8de5ba;}.cls-4{opacity:0.65;}.cls-5{fill:#00887f;}.cls-6{fill:#45c0b0;}.cls-7{fill:#5ecea7;}</style><linearGradient id="_ÂÁ_Ï_ÌÌ_È_ËÂÌÚ_327" x1="1024.68" y1="-1173.59" x2="1024.68" y2="-1230.96" gradientTransform="matrix(0.87, -0.5, 1, 0.58, 382.66, 1329.83)" gradientUnits="userSpaceOnUse"><stop offset="0" stop-color="#786651"/><stop offset="1" stop-color="#fff"/></linearGradient></defs><g class="cls-1"><g id="Layer_2" data-name="Layer 2"><g id="_ÎÓÈ_1" data-name="—ÎÓÈ_1"><polygon class="cls-2" points="135.75 117.59 57.97 162.5 0 129.14 77.78 84.24 135.75 117.59"/><polygon class="cls-3" points="57.97 72.69 135.56 117.47 135.75 117.59 135.75 27.78 57.97 72.69"/><g class="cls-4"><polygon class="cls-5" points="135.75 27.78 124.17 92.56 57.97 130.26 57.97 162.5 135.75 117.6 135.75 27.78"/></g><polygon class="cls-5" points="135.75 27.78 135.75 117.59 213.54 72.69 135.75 27.78"/><polygon class="cls-6" points="165.42 0 243.2 44.91 213.54 72.69 135.75 27.78 165.42 0"/><polygon class="cls-7" points="135.75 27.78 57.97 72.69 28.31 44.53 105.48 0 135.75 27.78"/></g></g></g></svg>