<svg xmlns="http://www.w3.org/2000/svg" viewBox="0 0 274.49 290.67"><defs><style>.cls-1{isolation:isolate;}.cls-2,.cls-3,.cls-4,.cls-5{fill:#ba9561;}.cls-3{opacity:0.47;}.cls-3,.cls-5{mix-blend-mode:screen;}.cls-4{opacity:0.31;mix-blend-mode:multiply;}.cls-5{opacity:0.36;}.cls-6{fill:#a76e3d;}.cls-7{fill:#442510;}.cls-8{fill:#d7d7d7;opacity:0.44;}</style></defs><g class="cls-1"><g id="Layer_2" data-name="Layer 2"><g id="_ÎÓÈ_2" data-name="—ÎÓÈ_2"><path class="cls-2" d="M77.1,236.71c-.16-.5-.32-1-.49-1.52l-.85.05-.56,0-.57,0h-.87c-.34,0-.68,0-1,0l-.73,0-1.57-.07-1.08-.08q-1.08-.08-2.19-.21c-.81-.1-1.63-.21-2.47-.35s-1.44-.24-2.18-.38c-1.19-.24-2.4-.5-3.62-.81s-2.32-.62-3.49-1c-.8-.25-1.6-.51-2.39-.8a60.64,60.64,0,0,1-7-3,52.41,52.41,0,0,1-8.78-5.52c-6.16-4.81-10.48-31.81-9.86-56.28a16.55,16.55,0,0,1,6.73-13.33l.55-.4c.37-.26.74-.51,1.13-.75h0c.5-.31,1-.6,1.54-.88.69-.37,1.41-.71,2.15-1,.43-.18.87-.36,1.31-.52A42.79,42.79,0,0,1,47.09,148l1.26-.24a75.4,75.4,0,0,1,14.32-1.11l.91,0h.23l.91,0,.4,0,.52,0c0-4.44,0-8.65.09-12.56.07-3.24.17-6.27.27-9.06l-3,0h-.7c-1,0-2.16,0-3.32,0C37.9,125.66.76,129.93.07,154.13c-1,33.8,8.06,72.69,17.65,79.33a62.57,62.57,0,0,0,13.14,6.83,96.08,96.08,0,0,0,14.07,4.19l2,.42A132.18,132.18,0,0,0,61.65,247l2.14.18c5,.36,9.79.46,14.15.34l1.65-.05c.55,0,1.08,0,1.6-.07C79.69,244,78.34,240.42,77.1,236.71Z"/><path class="cls-3" d="M67.23,127.63s-17.39,0-32.26,3.2S8.2,138.12,5.1,148.61c-7.91,26.73,8.2,75.15,8.83,74.44,1.6-1.78-4.8-18.76-5.69-36.7-.94-19.21,3.82-39.52,12-43.45,15.53-7.43,46.19-7.34,46.19-7.34Z"/><path class="cls-4" d="M81.19,247.4c-.52,0-1,0-1.6.07l-1.65.05c-4.36.12-9.15,0-14.15-.34L61.65,247a132.18,132.18,0,0,1-14.73-2.1l-2-.42a96.08,96.08,0,0,1-14.07-4.19c8,1.41,21.31,4.5,28.83,4.85,3.42.15,7.58,1.39,12.87-7.89h0c-6.22.31-16.6-.66-33.07-5.91-21.07-6.73-24.56-65.94-17.36-76.54C30,143.27,37.27,143.09,48.8,139.33c6.08-2,10.17-14.15,10.17-14.15,1.16,0,2.27,0,3.32,0H63l3,0c-.1,2.79-.2,5.82-.27,9.06-.07,3.91-.11,8.12-.09,12.56l-.52,0-.4,0-.91,0h-.23l-.91,0a75.4,75.4,0,0,0-14.32,1.11l-1.26.24a42.79,42.79,0,0,0-6.35,1.83c-.44.16-.88.34-1.31.52-.74.32-1.46.66-2.15,1-.53.28-1,.57-1.54.88h0c-.39.24-.76.49-1.13.75l-.55.4a16.55,16.55,0,0,0-6.73,13.33c-.62,24.47,3.7,51.47,9.86,56.28A52.41,52.41,0,0,0,46,228.58a60.64,60.64,0,0,0,7,3c.79.29,1.59.55,2.39.8,1.17.37,2.34.7,3.49,1s2.43.57,3.62.81c.74.14,1.46.27,2.18.38s1.66.25,2.47.35,1.47.16,2.19.21l1.08.08,1.57.07.73,0c.85,0,1.67,0,2.47,0l.56,0,.85-.05c.17.51.33,1,.49,1.52C78.34,240.42,79.69,244,81.19,247.4Z"/><path class="cls-2" d="M273.93,107.54l-.18-2.59c-3.87-9.76-49.07-18.65-103.5-18.65s-99,8-102.85,17.77l-.27,1.36s-.25,2.62-.22,2.84c0,.37,0,.82-.08,1.29-.23,3.23-.57,8.64-.83,15.59-.23,6.15-.4,13.5-.36,21.62,0,6.5.16,13.49.51,20.74.08,1.79.18,3.59.3,5.42,0,.34,0,.67,0,1,1.26,20.52,4.15,42.57,10.12,61.25a121.74,121.74,0,0,0,4.58,12.21c4.26,9.67,9.63,17.86,16.37,23.68a42.93,42.93,0,0,0,4.09,3.12c1.08.73,2.25,1.42,3.44,2.09.7.4,1.41.78,2.14,1.16a86.85,86.85,0,0,0,10.34,4.45c34.92,12.55,92.44,12.19,117.85-4.7a42.5,42.5,0,0,0,6.61-5.46,50.76,50.76,0,0,0,4.33-4.88,66.94,66.94,0,0,0,4.85-7.06c.12-.23.27-.44.39-.67.56-.92,1.1-1.86,1.61-2.84,11.58-21.36,17-52.14,19.42-80.17.08-.74.15-1.47.2-2.21.12-1.6.26-3.19.36-4.78A522.52,522.52,0,0,0,273.93,107.54Z"/><path class="cls-4" d="M242,271.74a42.5,42.5,0,0,1-6.61,5.46c-25.41,16.89-82.94,17.25-117.85,4.7a86.85,86.85,0,0,1-10.34-4.45c-.73-.38-1.43-.77-2.14-1.16-1.19-.67-2.36-1.36-3.44-2.09a41.33,41.33,0,0,1-4.09-3.12C69.69,231.21,74.63,144,76,125.4c2.17,3,13.6,6.64,18.42,8.63,5.63,2.32,15.55,3.65,38.23,4.43,1.22,0-32.74,5.76-31.92,39.77.37,14.73,10.26,64,53.51,86.84C178,277.64,216.83,274.29,242,271.74Z"/><path class="cls-5" d="M260.29,128.84s-38.79,9.23-59.7,11.1a338.07,338.07,0,0,1-37.06,1.4s14.52,8.79,18,15.14c4.57,8.41,1,20.43-1.28,29.83,12.14-10.14,9.9-18.62,19.35-32.78C200.16,152.65,260.29,128.84,260.29,128.84Z"/><path class="cls-6" d="M270.58,107.11c0,3.63-5.72,7.17-15.6,10.24-.76.23-1.57.47-2.4.7-18.11,5.12-48.17,8.69-82.35,8.69-37.6,0-70.53-4.33-87.95-10.27l-1.5-.54h0c-7.43-2.71-11.63-5.73-11.63-8.82,0-10.17,45.07-18.42,100.72-18.42S270.58,96.94,270.58,107.11Z"/><path class="cls-7" d="M255,117.35c-.78.23-1.58.48-2.41.71a199.85,199.85,0,0,1-26.32,5.16,421.49,421.49,0,0,1-56,3.52,445.69,445.69,0,0,1-47.51-2.44c-16.89-1.85-30.95-4.6-40.43-7.82-.51-.2-1-.37-1.51-.55,4.44-7.57,32-13.69,67.74-15.32,6.14-.28,12.52-.43,19.08-.43,9.23,0,18.15.29,26.51.84C228.38,103.25,253.48,109.67,255,117.35Z"/><path class="cls-8" d="M171.81,0s-12.72,3.29-10.47,13.16,11.22,7.24,12,13.81-4.49,11.19-4.49,11.19,13.47-5.92,12-10.53-11.22-7.23-12-13.81S171.81,0,171.81,0Z"/><path class="cls-8" d="M226.26,122.48a348.34,348.34,0,0,1-56,4.26,369.8,369.8,0,0,1-47.51-2.95,15.67,15.67,0,0,1-5.46-4.31c-9-11.85,48-17.57,31.26-24.32-.76-.3-1.66-.62-2.7-.92C58.84,69,158,71.55,156.28,62.83c-3.43-17.08-14.15-10.18-9.52-29.12,1.17-4.8,9.91-11,12-5.74,1.05,2.7-7.55,10.78-5.65,16.92,2.19,7.23,33.48,16.52,31.19,26.4-1.22,5.21-27.2,6.39-28.44,7.87-5.34,6.29,28.31,9.32,38.28,16.49,4.65,3.37,4.17,7.63-7.92,13.59C196.73,107.78,221.1,109.56,226.26,122.48Z"/></g></g></g></svg>