<svg xmlns="http://www.w3.org/2000/svg" xmlns:xlink="http://www.w3.org/1999/xlink" viewBox="0 0 1320.42 1174.58"><defs><style>.cls-1{fill:#353b3b;}.cls-2{isolation:isolate;}.cls-11,.cls-3{opacity:0.13;}.cls-3{mix-blend-mode:multiply;}.cls-4{fill:#a7cccc;}.cls-5{fill:#e1e8e8;}.cls-6{fill:#b8d4d4;}.cls-7{fill:#d2d6d6;stroke:#ccc;stroke-miterlimit:10;stroke-width:3.02px;}.cls-14,.cls-8{fill:#313838;}.cls-9{fill:#242424;}.cls-10{clip-path:url(#clip-path);}.cls-12{fill:#fff;}.cls-13{fill:gray;opacity:0.35;}.cls-14{opacity:0.22;}.cls-15{fill:#f2f2e8;}</style><clipPath id="clip-path" transform="translate(0 95.22)"><rect class="cls-1" x="132.03" y="127.87" width="948.11" height="536.26" rx="16.52"/></clipPath></defs><g class="cls-2"><g id="Layer_2" data-name="Layer 2"><g id="Layer_2-2" data-name="Layer 2"><path class="cls-3" d="M520.49,760.69c-19.67-13.14-50.75,159.54-65.76,153L116.22,767.45c-8.87,2.24-15.27,6-16.32,10.25L5.36,1044.47c-2.21,9,36.5,34.87,56.76,34.87l1148.54,0c20.26,0,34.79-7.31,32.47-16.26L1169.21,778c-2.48-9.56-24.26-17.26-48.66-17.26Z" transform="translate(0 95.22)"/><path class="cls-4" d="M1172.37,1050.68l-1139.9,0c-20.1,0-34.52-7.19-32.23-16v-28.11L73.36,753.27c1.77-6.8,17.38-12.29,34.89-12.29h992.59c17.5,0,33,5.49,34.72,12.29l69.26,253.28v28.11C1207,1043.48,1192.47,1050.68,1172.37,1050.68Z" transform="translate(0 95.22)"/><path class="cls-5" d="M1172.37,1022.57l-1139.9,0c-20.1,0-34.52-7.19-32.23-16L73.36,725.16c1.77-6.81,17.38-12.29,34.89-12.29h992.59c17.5,0,33,5.49,34.72,12.29l69.26,281.39C1207,1015.37,1192.47,1022.57,1172.37,1022.57Z" transform="translate(0 95.22)"/><path class="cls-6" d="M719.12,1022.56H485.72c.35-6.26,12-11.3,26.14-11.3H693.13c14.09,0,25.73,5,26,11.3Z" transform="translate(0 95.22)"/><path class="cls-7" d="M748.28,991.1H457c-11.12,0-19.83-3.93-19.46-8.76l5.89-76.53c.35-4.51,9.28-8.15,20-8.15H743.17c10.68,0,19.56,3.64,19.85,8.14l4.84,76.53C768.16,987.17,759.4,991.1,748.28,991.1Z" transform="translate(0 95.22)"/><path class="cls-8" d="M173.37,775.67H136.78c-6.54,0-11.36-2.1-10.76-4.69l3.3-14.37c.59-2.55,6.3-4.61,12.77-4.61h36.19c6.46,0,11.29,2.06,10.78,4.61L186.16,771C185.63,773.57,179.91,775.67,173.37,775.67Z" transform="translate(0 95.22)"/><path class="cls-8" d="M250.71,775.67H214.12c-6.54,0-11.44-2.1-10.93-4.69L206,756.61c.5-2.55,6.14-4.61,12.6-4.61h36.19c6.47,0,11.37,2.06,10.95,4.61L263.33,771C262.9,773.57,257.25,775.67,250.71,775.67Z" transform="translate(0 95.22)"/><path class="cls-8" d="M328.05,775.68h-36.6c-6.53,0-11.5-2.11-11.1-4.7l2.27-14.37c.41-2.55,6-4.61,12.44-4.61h36.19c6.47,0,11.44,2.06,11.11,4.61L340.49,771C340.16,773.57,334.59,775.68,328.05,775.68Z" transform="translate(0 95.22)"/><path class="cls-8" d="M405.38,775.68H368.79c-6.54,0-11.58-2.11-11.27-4.7l1.76-14.37c.31-2.55,5.8-4.61,12.27-4.61h36.19c6.46,0,11.51,2.06,11.27,4.61L417.66,771C417.42,773.57,411.92,775.68,405.38,775.68Z" transform="translate(0 95.22)"/><path class="cls-8" d="M482.72,775.68H446.13c-6.54,0-11.66-2.11-11.44-4.7l1.24-14.37c.22-2.55,5.64-4.61,12.1-4.61h36.19c6.47,0,11.59,2.06,11.44,4.61L494.83,771C494.68,773.57,489.26,775.68,482.72,775.68Z" transform="translate(0 95.22)"/><path class="cls-8" d="M560.06,775.68H523.47c-6.54,0-11.74-2.11-11.61-4.69l.72-14.38c.13-2.55,5.47-4.61,11.94-4.61h36.19c6.46,0,11.66,2.06,11.61,4.61L572,771C572,773.58,566.6,775.68,560.06,775.68Z" transform="translate(0 95.22)"/><path class="cls-8" d="M637.4,775.68H600.8c-6.53,0-11.81-2.1-11.77-4.69l.2-14.38c0-2.55,5.31-4.61,11.77-4.61h36.19c6.47,0,11.74,2.06,11.78,4.61l.2,14.38C649.21,773.58,643.94,775.68,637.4,775.68Z" transform="translate(0 95.22)"/><path class="cls-8" d="M714.74,775.68h-36.6c-6.54,0-11.88-2.1-11.94-4.69l-.32-14.38c0-2.55,5.14-4.61,11.61-4.61h36.19c6.47,0,11.81,2.07,11.94,4.61l.72,14.38C726.47,773.58,721.28,775.68,714.74,775.68Z" transform="translate(0 95.22)"/><path class="cls-8" d="M792.07,775.68H755.48c-6.54,0-12-2.1-12.11-4.69l-.84-14.38c-.14-2.54,5-4.61,11.45-4.61h36.19c6.46,0,11.88,2.07,12.1,4.61L803.51,771C803.73,773.58,798.61,775.68,792.07,775.68Z" transform="translate(0 95.22)"/><path class="cls-8" d="M869.41,775.68H832.82c-6.54,0-12-2.1-12.28-4.69l-1.35-14.38C819,754.07,824,752,830.46,752h36.19c6.47,0,12,2.06,12.27,4.61L880.68,771C881,773.58,876,775.68,869.41,775.68Z" transform="translate(0 95.22)"/><path class="cls-8" d="M946.75,775.68H910.16c-6.54,0-12.11-2.1-12.45-4.69l-1.87-14.37c-.33-2.55,4.64-4.61,11.11-4.61h36.19c6.47,0,12,2.06,12.44,4.61L957.85,771C958.26,773.58,953.29,775.68,946.75,775.68Z" transform="translate(0 95.22)"/><path class="cls-8" d="M1071.45,775.68h-84c-6.54,0-12.19-2.1-12.62-4.69l-2.39-14.37c-.42-2.55,4.48-4.61,11-4.61h83c6.47,0,12.16,2.06,12.71,4.61l3.1,14.37C1082.83,773.58,1078,775.68,1071.45,775.68Z" transform="translate(0 95.22)"/><path class="cls-8" d="M215.05,806.32H129.91c-6.64,0-11.51-2.16-10.9-4.82l3.4-14.79c.6-2.62,6.4-4.74,13-4.74h84.19c6.56,0,11.5,2.12,11,4.74l-2.65,14.79C227.45,804.15,221.68,806.32,215.05,806.32Z" transform="translate(0 95.22)"/><path class="cls-8" d="M293.49,806.32H256.38c-6.63,0-11.64-2.17-11.18-4.83l2.54-14.79c.45-2.62,6.13-4.74,12.69-4.74h36.7c6.55,0,11.57,2.12,11.19,4.74l-2.13,14.79C305.81,804.15,300.13,806.32,293.49,806.32Z" transform="translate(0 95.22)"/><path class="cls-8" d="M371.93,806.32H334.82c-6.63,0-11.72-2.17-11.35-4.83l2-14.79c.36-2.62,6-4.74,12.52-4.74h36.7c6.56,0,11.65,2.12,11.36,4.75l-1.59,14.78C384.17,804.15,378.56,806.32,371.93,806.32Z" transform="translate(0 95.22)"/><path class="cls-8" d="M450.37,806.32H413.26c-6.63,0-11.79-2.17-11.53-4.83l1.48-14.78c.26-2.62,5.79-4.74,12.34-4.74h36.71c6.55,0,11.72,2.12,11.53,4.74l-1.06,14.78C462.54,804.15,457,806.32,450.37,806.32Z" transform="translate(0 95.22)"/><path class="cls-8" d="M528.81,806.32H491.7c-6.63,0-11.87-2.17-11.7-4.83l.94-14.78c.17-2.62,5.62-4.74,12.18-4.74h36.7c6.56,0,11.8,2.12,11.7,4.74L541,801.49C540.9,804.16,535.45,806.32,528.81,806.32Z" transform="translate(0 95.22)"/><path class="cls-8" d="M607.25,806.32H570.14c-6.63,0-11.95-2.16-11.87-4.83l.41-14.78c.07-2.62,5.45-4.74,12-4.74h36.7c6.56,0,11.88,2.12,11.88,4.74v14.78C619.26,804.16,613.89,806.32,607.25,806.32Z" transform="translate(0 95.22)"/><path class="cls-8" d="M685.69,806.32H648.58c-6.63,0-12-2.16-12.05-4.83l-.12-14.78c0-2.62,5.28-4.74,11.84-4.74H685c6.56,0,11.95,2.12,12,4.74l.54,14.78C697.62,804.16,692.33,806.32,685.69,806.32Z" transform="translate(0 95.22)"/><path class="cls-8" d="M764.13,806.32H727c-6.63,0-12.1-2.16-12.22-4.83l-.65-14.78c-.12-2.62,5.1-4.74,11.66-4.74h36.7c6.56,0,12,2.12,12.22,4.74l1.06,14.78C776,804.16,770.77,806.32,764.13,806.32Z" transform="translate(0 95.22)"/><path class="cls-8" d="M842.58,806.32H805.46c-6.63,0-12.18-2.16-12.39-4.82l-1.19-14.79c-.21-2.62,4.94-4.74,11.5-4.74h36.7c6.55,0,12.1,2.12,12.38,4.74l1.6,14.79C854.35,804.16,849.21,806.32,842.58,806.32Z" transform="translate(0 95.22)"/><path class="cls-8" d="M921,806.32H883.9c-6.63,0-12.26-2.16-12.57-4.82l-1.71-14.79c-.31-2.62,4.76-4.74,11.32-4.74h36.7c6.56,0,12.18,2.12,12.56,4.74l2.13,14.79C932.71,804.16,927.65,806.32,921,806.32Z" transform="translate(0 95.22)"/><path class="cls-8" d="M999.46,806.32H962.34c-6.63,0-12.34-2.16-12.74-4.82l-2.25-14.79C947,784.09,952,782,958.5,782h36.71c6.55,0,12.25,2.12,12.72,4.74l2.67,14.79C1011.08,804.16,1006.09,806.32,999.46,806.32Z" transform="translate(0 95.22)"/><path class="cls-8" d="M1077.9,806.33h-37.12c-6.63,0-12.41-2.16-12.91-4.82l-2.78-14.79c-.5-2.62,4.42-4.74,11-4.74h36.7c6.56,0,12.33,2.12,12.9,4.74l3.19,14.79C1089.44,804.16,1084.53,806.33,1077.9,806.33Z" transform="translate(0 95.22)"/><path class="cls-8" d="M246.87,837.84h-124c-6.73,0-11.67-2.23-11-5l3.49-15.21c.62-2.7,6.51-4.88,13.17-4.88H251.08c6.65,0,11.69,2.19,11.25,4.88l-2.47,15.22C259.41,835.62,253.59,837.84,246.87,837.84Z" transform="translate(0 95.22)"/><path class="cls-8" d="M326.44,837.84H288.79c-6.73,0-11.84-2.22-11.41-5l2.35-15.22c.42-2.69,6.15-4.87,12.8-4.87h37.22c6.65,0,11.77,2.18,11.43,4.87l-1.93,15.22C338.9,835.62,333.17,837.84,326.44,837.84Z" transform="translate(0 95.22)"/><path class="cls-8" d="M406,837.84H368.36c-6.72,0-11.91-2.22-11.59-5l1.81-15.22c.32-2.69,6-4.87,12.62-4.87h37.23c6.65,0,11.84,2.18,11.6,4.87l-1.38,15.22C418.4,835.62,412.74,837.84,406,837.84Z" transform="translate(0 95.22)"/><path class="cls-8" d="M485.59,837.85H447.94c-6.73,0-12-2.22-11.77-5l1.26-15.22c.22-2.69,5.79-4.87,12.44-4.87H487.1c6.65,0,11.92,2.18,11.78,4.88L498,832.88C497.89,835.62,492.32,837.85,485.59,837.85Z" transform="translate(0 95.22)"/><path class="cls-8" d="M565.16,837.85H527.51c-6.73,0-12.08-2.23-12-5l.72-15.21c.12-2.7,5.62-4.88,12.27-4.88h37.22c6.65,0,12,2.18,12,4.88l-.28,15.21C577.39,835.62,571.89,837.85,565.16,837.85Z" transform="translate(0 95.22)"/><path class="cls-8" d="M644.74,837.85H607.09c-6.73,0-12.16-2.23-12.13-5l.16-15.21c0-2.7,5.45-4.88,12.1-4.88h37.22c6.66,0,12.09,2.18,12.13,4.88l.26,15.21C656.88,835.62,651.47,837.85,644.74,837.85Z" transform="translate(0 95.22)"/><path class="cls-8" d="M724.31,837.85H686.66c-6.73,0-12.24-2.23-12.31-5L674,817.67c-.07-2.7,5.27-4.88,11.92-4.88h37.23c6.65,0,12.16,2.18,12.3,4.88l.81,15.21C736.38,835.62,731,837.85,724.31,837.85Z" transform="translate(0 95.22)"/><path class="cls-8" d="M803.89,837.85H766.24c-6.73,0-12.32-2.23-12.49-5l-.93-15.21c-.16-2.7,5.09-4.88,11.75-4.88h37.22c6.65,0,12.24,2.18,12.48,4.88l1.36,15.21C815.87,835.62,810.62,837.85,803.89,837.85Z" transform="translate(0 95.22)"/><path class="cls-8" d="M883.46,837.85H845.81c-6.73,0-12.4-2.23-12.66-5l-1.48-15.21c-.26-2.7,4.92-4.88,11.57-4.88h37.22c6.66,0,12.32,2.18,12.66,4.88l1.9,15.21C895.36,835.62,890.19,837.85,883.46,837.85Z" transform="translate(0 95.22)"/><path class="cls-8" d="M963,837.85H925.39c-6.73,0-12.48-2.23-12.85-5l-2-15.21c-.36-2.7,4.74-4.88,11.39-4.88h37.23c6.65,0,12.39,2.18,12.83,4.88l2.45,15.21C974.86,835.62,969.76,837.85,963,837.85Z" transform="translate(0 95.22)"/><path class="cls-8" d="M1084.38,837.85H1005c-6.73,0-12.56-2.23-13-5l-2.57-15.21c-.46-2.7,4.56-4.88,11.22-4.88h78.51c6.65,0,12.52,2.19,13.1,4.88l3.29,15.22C1096.08,835.63,1091.1,837.85,1084.38,837.85Z" transform="translate(0 95.22)"/><path class="cls-8" d="M153.76,870.29h-38.2c-6.83,0-11.83-2.29-11.19-5.11l3.6-15.66c.64-2.78,6.63-5,13.37-5h37.77c6.75,0,11.76,2.24,11.2,5l-3.16,15.66C166.59,868,160.59,870.29,153.76,870.29Z" transform="translate(0 95.22)"/><path class="cls-8" d="M234.5,870.29H196.3c-6.83,0-11.91-2.29-11.37-5.11l3-15.66c.53-2.78,6.44-5,13.19-5h37.76c6.75,0,11.85,2.25,11.39,5l-2.6,15.66C247.25,868,241.33,870.29,234.5,870.29Z" transform="translate(0 95.22)"/><path class="cls-8" d="M315.25,870.3H277c-6.82,0-12-2.3-11.55-5.12L268,849.52c.44-2.77,6.26-5,13-5h37.77c6.74,0,11.92,2.25,11.56,5l-2,15.66C327.9,868,322.07,870.3,315.25,870.3Z" transform="translate(0 95.22)"/><path class="cls-8" d="M691.48,870.3H353.8c-4.63,0-8.19-1.56-7.95-3.47l2.3-18.93c.23-1.88,4.12-3.4,8.69-3.4H690.65c4.57,0,8.33,1.52,8.4,3.39l.68,18.93C699.8,868.75,696.11,870.3,691.48,870.3Z" transform="translate(0 95.22)"/><path class="cls-8" d="M768.24,870.3H730c-6.82,0-12.46-2.29-12.58-5.11l-.69-15.66c-.12-2.78,5.25-5,12-5h37.76c6.75,0,12.38,2.24,12.58,5l1.13,15.66C780.43,868,775.06,870.3,768.24,870.3Z" transform="translate(0 95.22)"/><path class="cls-8" d="M849,870.3h-38.2c-6.83,0-12.55-2.29-12.77-5.11l-1.26-15.66c-.22-2.78,5.07-5,11.82-5h37.77c6.74,0,12.46,2.24,12.76,5l1.69,15.66C861.09,868,855.81,870.3,849,870.3Z" transform="translate(0 95.22)"/><path class="cls-8" d="M938.39,870.3H882.85c-2,0-3.77-.68-3.87-1.53l-1.15-9.92c-.1-.84,1.47-1.52,3.49-1.52h55.22c2,0,3.77.68,3.89,1.52l1.43,9.92C942,869.62,940.43,870.3,938.39,870.3Z" transform="translate(0 95.22)"/><path class="cls-8" d="M1010.46,870.3h-38.2c-6.83,0-12.71-2.29-13.14-5.11l-2.38-15.66c-.42-2.78,4.71-5,11.46-5H1006c6.75,0,12.63,2.24,13.13,5l2.81,15.66C1022.41,868,1017.29,870.3,1010.46,870.3Z" transform="translate(0 95.22)"/><path class="cls-8" d="M1099.88,870.31h-55.54c-2,0-3.83-.68-4-1.53l-1.87-9.92c-.16-.84,1.36-1.52,3.39-1.52h55.21c2,0,3.82.68,4,1.52l2.15,9.92C1103.42,869.62,1101.91,870.31,1099.88,870.31Z" transform="translate(0 95.22)"/><rect class="cls-9" x="77.1" y="172.27" width="1057.96" height="637.89" rx="28.74"/><rect class="cls-1" x="132.03" y="223.09" width="948.11" height="536.26" rx="16.52"/><g class="cls-10"><g class="cls-11"><polygon class="cls-12" points="529.57 931.35 343.7 805.38 982.01 0 1167.88 125.97 529.57 931.35"/><polygon class="cls-12" points="682.11 1055.85 542.45 961.19 1180.76 155.81 1320.42 250.47 682.11 1055.85"/></g></g><path class="cls-13" d="M614.53,101.41c0,4.31-3.78,7.82-8.45,7.82s-8.45-3.51-8.45-7.82,3.78-7.82,8.45-7.82S614.53,97.09,614.53,101.41Z" transform="translate(0 95.22)"/><polygon class="cls-8" points="965.64 817.33 243.32 817.32 244.97 808.09 964.11 808.1 965.64 817.33"/><polygon class="cls-14" points="966.79 824.25 242.08 824.24 243.33 817.23 965.63 817.24 966.79 824.25"/><path class="cls-3" d="M1207.42,794.09H171.33c-21.14,0-34.29-1.66-36.52-4.6l-55.49-73c-1-1.34,14.18-3.62,24.14-3.62h997.28c20.35,0,39.93,6.47,43.41,9.23l77.69,61.3c5.84,4.61.09,10-12.17,10.62Q1208.53,794.09,1207.42,794.09Z" transform="translate(0 95.22)"/><path class="cls-15" d="M1162.61,64.45a7,7,0,0,1-4.93-11.91l25.59-25.6a7,7,0,0,1,9.87,9.87l-25.6,25.6A7,7,0,0,1,1162.61,64.45Z" transform="translate(0 95.22)"/><path class="cls-15" d="M1213.11,100.56h-31.67a7,7,0,1,1,0-14h31.67a7,7,0,0,1,0,14Z" transform="translate(0 95.22)"/><path class="cls-15" d="M1126.5,45.61a7,7,0,0,1-7-7V7a7,7,0,0,1,14,0V38.64A7,7,0,0,1,1126.5,45.61Z" transform="translate(0 95.22)"/></g></g></g></svg>