<svg xmlns="http://www.w3.org/2000/svg" viewBox="0 0 897 897"><defs><style>.cls-1{fill:#5d8ab3;}.cls-2{fill:#99b6ce;}.cls-3{fill:#2a4868;}.cls-4{fill:#2f333a;}.cls-5{fill:#464d57;}.cls-6{fill:#7a8187;}.cls-7{fill:#e0e6e8;}.cls-8{fill:#a6c1dc;}.cls-9{fill:#fff;}.cls-10{fill:#c6d6ea;}</style></defs><g id="Layer_2" data-name="Layer 2"><g id="Layer_1-2" data-name="Layer 1"><rect class="cls-1" x="-50.68" y="630.96" width="567.97" height="65.47" transform="translate(-400.97 359.36) rotate(-45)"/><rect class="cls-2" x="-62.25" y="635.76" width="567.97" height="32.74" transform="translate(-396.18 347.79) rotate(-45)"/><path class="cls-3" d="M394.76,465.2l37,37a23.88,23.88,0,0,0,27.48,4.34l-68.86-68.86A23.9,23.9,0,0,0,394.76,465.2Z"/><path class="cls-1" d="M390.42,437.72a23.9,23.9,0,0,0,4.34,27.48l18.52,18.52,11.57-11.57Z"/><path class="cls-4" d="M398.78,568.74a23.3,23.3,0,0,0,3.79-5.45l-68.86-68.86a23,23,0,0,0-5.45,3.79L10.11,795.84a32.72,32.72,0,0,0-5.22,6.34L94.82,892.1a31.67,31.67,0,0,0,6.33-5.21Z"/><path class="cls-5" d="M333.71,494.43a23,23,0,0,0-5.45,3.79L10.11,795.84a32.72,32.72,0,0,0-5.22,6.34l45,45L368.14,528.86Z"/><path class="cls-5" d="M398.23,535.8l-37-37a23.86,23.86,0,0,0-27.48-4.34l68.86,68.86A23.9,23.9,0,0,0,398.23,535.8Z"/><path class="cls-4" d="M361.19,498.77a23.86,23.86,0,0,0-27.48-4.34l34.43,34.43,11.57-11.57Z"/><path class="cls-5" d="M9.35,841.36l46.29,46.29a31.37,31.37,0,0,0,39.18,4.45L4.89,802.18A31.39,31.39,0,0,0,9.35,841.36Z"/><path class="cls-4" d="M4.89,802.18a31.39,31.39,0,0,0,4.46,39.18L32.49,864.5l17.37-17.36Z"/><circle class="cls-6" cx="618.61" cy="278.39" r="278.39" transform="translate(-15.66 518.96) rotate(-45)"/><path class="cls-7" d="M618.61,0C465.11,0,340.22,124.88,340.22,278.39a277.53,277.53,0,0,0,81.63,196.76L815.37,81.63A277.53,277.53,0,0,0,618.61,0Z"/><circle class="cls-7" cx="618.61" cy="278.39" r="249.73" transform="translate(-15.66 518.96) rotate(-45)"/><path class="cls-6" d="M618.61,28.66c-137.7,0-249.73,112-249.73,249.73a249,249,0,0,0,73.23,176.5l353-353A249,249,0,0,0,618.61,28.66Z"/><path class="cls-8" d="M381.16,278.39c0-130.93,106.52-237.45,237.45-237.45S856.06,147.46,856.06,278.39,749.54,515.84,618.61,515.84,381.16,409.32,381.16,278.39Z"/><path class="cls-9" d="M826.06,278.39c0,114.38-93.06,207.44-207.45,207.44a206.79,206.79,0,0,1-146-60.16,209,209,0,0,0,123.46,40.22c115.79,0,210-94.2,210-210a208.86,208.86,0,0,0-40.26-123.51A206.81,206.81,0,0,1,826.06,278.39Z"/><path class="cls-10" d="M618.61,40.94c-130.93,0-237.45,106.52-237.45,237.45a236.71,236.71,0,0,0,69.63,167.82L786.44,110.57A236.71,236.71,0,0,0,618.61,40.94Z"/><circle class="cls-9" cx="498.61" cy="158.39" r="45"/></g></g></svg>