<svg xmlns="http://www.w3.org/2000/svg" viewBox="0 0 426.83 840.05"><defs><style>.cls-1{fill:#d8b393;}.cls-2{fill:#f5dcb9;}.cls-3{fill:#f0ceae;}.cls-4{fill:#f4f4f4;}.cls-5{fill:#e0e0e0;}.cls-6{fill:#f7f7f7;}</style></defs><g id="Layer_2" data-name="Layer 2"><g id="_ÎÓÈ_1" data-name="—ÎÓÈ_1"><polygon class="cls-1" points="146.53 530.2 144.97 550.86 239.48 554.53 239.48 532.86 146.53 530.2"/><polygon class="cls-2" points="146.7 527.53 146.7 548.86 237.93 551.86 237.93 530.2 146.7 527.53"/><polygon class="cls-3" points="374.72 781.06 247.33 0.22 230.18 0.22 359.21 781.06 374.72 781.06"/><polygon class="cls-1" points="374.72 781.38 382.76 774.93 255.6 4.45 247.33 0 374.72 781.38"/><polygon class="cls-2" points="216.99 41.97 28.61 815.08 48.39 815.08 233 41.97 216.99 41.97"/><polygon class="cls-2" points="273.74 41.89 254.66 839.82 275.86 839.82 292.34 41.16 273.74 41.89"/><polygon class="cls-3" points="296.99 505.53 299.78 507.53 299.78 538.2 295.14 536.86 295.14 519.53 296.99 505.53"/><polygon class="cls-3" points="233 41.34 48.39 814.71 60.4 809.38 238.09 47.95 233 41.34"/><polygon class="cls-2" points="95.45 617.58 259.81 624.71 259.29 646.48 90.29 639.19 95.45 617.58"/><polygon class="cls-3" points="275.86 840.05 292.34 41.34 296.11 46.67 285.98 833.16 275.86 840.05"/><polygon class="cls-2" points="72.49 516.42 295.14 519.97 295.14 536.86 72.49 531.31 72.49 516.42"/><polygon class="cls-1" points="72.65 531.31 294.46 536.86 300.11 538.2 82.77 533.75 72.65 531.31"/><polygon class="cls-1" points="90.29 639.19 98.89 644.44 259.18 651.06 259.29 646.48 90.29 639.19"/><polygon class="cls-4" points="42.1 104 416.05 78.46 394.77 517.44 0 513.67 42.1 104"/><polygon class="cls-5" points="416.05 78.46 394.77 517.44 405.27 521.86 426.83 84.18 416.05 78.46"/><path class="cls-5" d="M0,513.67l394.77,3.77,10.5,4.42L5.5,516.59Z"/><path class="cls-6" d="M42.1,104l374-25.54-.44,9L41.37,111.1Z"/></g></g></svg>