<svg id="Layer_1" data-name="Layer 1" xmlns="http://www.w3.org/2000/svg" xmlns:xlink="http://www.w3.org/1999/xlink" viewBox="0 0 438.42 760.94"><defs><style>.cls-1{fill:none;}.cls-2{clip-path:url(#clip-path);}.cls-3{fill:#2ecc71;}.cls-4{fill:#27ae60;}.cls-5{fill:#208c4d;}.cls-6{fill:#1b7842;}.cls-7{fill:#fff;}</style><clipPath id="clip-path" transform="translate(0 0)"><rect class="cls-1" width="438.42" height="510.98"/></clipPath></defs><g class="cls-2"><g id="Layer_2" data-name="Layer 2"><g id="ëÎÓÈ_1" data-name="ëÎÓÈ 1"><path class="cls-3" d="M371.94,760.94H66.48a25.2,25.2,0,0,1-25.19-24.48L25.2,174.7h388L397.13,736.46A25.2,25.2,0,0,1,371.94,760.94Z" transform="translate(0 0)"/><path class="cls-4" d="M14,142.78H424.42a14,14,0,0,1,14,14v9.92a8,8,0,0,1-8,8H8a8,8,0,0,1-8-8v-9.92A14,14,0,0,1,14,142.78Z" transform="translate(0 0)"/><path class="cls-3" d="M339.06,0H99.36A33.6,33.6,0,0,0,67.68,22.41L25.2,142.78h388L370.74,22.41A33.6,33.6,0,0,0,339.06,0Z" transform="translate(0 0)"/><polygon class="cls-5" points="413.22 174.7 25.2 174.7 25.4 181.92 409.89 291.19 413.22 174.7"/><rect class="cls-6" x="127.81" y="54.21" width="182.8" height="53.68" rx="23.55"/><path class="cls-7" d="M261.94,330.53l-9.46,5.71L242.12,318.3a26.45,26.45,0,0,0-45.82,0L173.93,357l12.42,7.49,22.5-39a12,12,0,0,1,20.72,0l10.49,18.17-9.52,5.74,27.37,10.74Z" transform="translate(0 0)"/><path class="cls-7" d="M293.2,406.78,270,366.54,257.56,374l23.09,40a12,12,0,0,1-10.36,18H248.35v-9.83L225,439.57l23.31,16.29v-9.4h21.94a26.46,26.46,0,0,0,22.91-39.68Z" transform="translate(0 0)"/><path class="cls-7" d="M168.13,432a12,12,0,0,1-10.36-18l11.07-19.17,9.35,5.64-3.84-29.59-27.56,10.66,9.63,5.81-11.2,19.41a26.46,26.46,0,0,0,22.91,39.68h45.25V432Z" transform="translate(0 0)"/></g></g></g></svg>